<?xml version="1.0" encoding="UTF-8"?>
<!DOCTYPE svg PUBLIC "-//W3C//DTD SVG 1.1//EN" "http://www.w3.org/Graphics/SVG/1.1/DTD/svg11.dtd">
<svg xmlns="http://www.w3.org/2000/svg" version="1.1" width="677px" height="127px" style="shape-rendering:geometricPrecision; text-rendering:geometricPrecision; image-rendering:optimizeQuality; fill-rule:evenodd; clip-rule:evenodd" xmlns:xlink="http://www.w3.org/1999/xlink">
<g><path style="opacity:1" fill="#fcfcfc" d="M -0.5,-0.5 C 225.167,-0.5 450.833,-0.5 676.5,-0.5C 676.5,41.8333 676.5,84.1667 676.5,126.5C 450.833,126.5 225.167,126.5 -0.5,126.5C -0.5,105.833 -0.5,85.1667 -0.5,64.5C 1.81436,67.7766 4.14769,71.1099 6.5,74.5C 9.5,76.5 12.5,78.5 15.5,80.5C 23.8977,83.0151 32.2311,85.6818 40.5,88.5C 41.9953,87.8877 43.6619,87.8877 45.5,88.5C 47.0296,88.6399 48.0296,89.3065 48.5,90.5C 48.8527,95.3571 49.8527,100.024 51.5,104.5C 51.7377,106.645 52.7377,108.312 54.5,109.5C 61.3227,108.827 66.8227,105.827 71,100.5C 73.7872,96.3997 76.6205,92.3997 79.5,88.5C 89.8542,94.3726 101.188,96.7059 113.5,95.5C 122.815,96.0023 131.815,94.6689 140.5,91.5C 143.255,90.369 145.589,88.7024 147.5,86.5C 149.964,83.934 149.631,81.434 146.5,79C 146.833,78.6667 147.167,78.3333 147.5,78C 141.337,70.2452 133.67,64.4119 124.5,60.5C 116.433,57.7669 108.1,56.4335 99.5,56.5C 99.0618,56.5654 98.7284,56.3988 98.5,56C 99.7101,54.9609 100.71,53.7942 101.5,52.5C 101.489,50.9826 100.823,49.8159 99.5,49C 97.5681,47.5415 95.5681,46.3748 93.5,45.5C 94.499,40.8387 95.499,36.172 96.5,31.5C 95.9747,30.8076 95.3081,30.3076 94.5,30C 95.2524,29.3292 95.5858,28.4959 95.5,27.5C 96.0431,27.44 96.3764,27.1067 96.5,26.5C 95.4944,18.0319 92.6611,10.3653 88,3.5C 87.3109,2.64332 86.4776,1.97665 85.5,1.5C 81.8649,2.78688 78.8649,4.78688 76.5,7.5C 75.8333,7.5 75.5,7.83333 75.5,8.5C 74.2794,9.02832 73.1127,9.69499 72,10.5C 66.7198,17.7292 63.0531,25.7292 61,34.5C 56.9369,33.1274 52.7702,32.1274 48.5,31.5C 47.3622,34.3035 47.1955,37.3035 48,40.5C 48.0367,42.9739 48.87,44.9739 50.5,46.5C 48.3216,49.734 45.8216,50.0673 43,47.5C 39.6237,48.3654 36.2904,48.032 33,46.5C 30.3333,47.8333 27.6667,47.8333 25,46.5C 24.5831,47.756 23.7498,48.4226 22.5,48.5C 18.7878,48.9608 15.1211,49.6275 11.5,50.5C 11.5,51.5 11.5,52.5 11.5,53.5C 9.43571,53.687 7.43571,54.187 5.5,55C 4.00158,57.6637 2.00158,59.8304 -0.5,61.5C -0.5,40.8333 -0.5,20.1667 -0.5,-0.5 Z"/></g>
<g><path style="opacity:1" fill="#040404" d="M 215.5,1.5 C 215.5,4.5 215.5,7.5 215.5,10.5C 227.345,10.8283 239.012,10.4949 250.5,9.5C 250.5,6.83333 250.5,4.16667 250.5,1.5C 253.5,1.5 256.5,1.5 259.5,1.5C 259.5,4.16667 259.5,6.83333 259.5,9.5C 269.319,10.494 279.319,10.8274 289.5,10.5C 289.5,12.8333 289.5,15.1667 289.5,17.5C 279.319,17.1726 269.319,17.506 259.5,18.5C 259.5,21.1667 259.5,23.8333 259.5,26.5C 257.5,26.5 255.5,26.5 253.5,26.5C 252.539,28.2646 252.205,30.2646 252.5,32.5C 260.59,32.8326 267.923,32.4992 274.5,31.5C 271.402,29.1084 268.069,26.9417 264.5,25C 265.68,23.1039 267.18,21.6039 269,20.5C 274.421,22.456 279.255,25.2894 283.5,29C 283.241,30.2613 282.574,31.2613 281.5,32C 284.146,32.4974 286.813,32.6641 289.5,32.5C 289.5,34.5 289.5,36.5 289.5,38.5C 277.167,38.5 264.833,38.5 252.5,38.5C 252.205,40.7354 252.539,42.7354 253.5,44.5C 263.5,44.5 273.5,44.5 283.5,44.5C 283.5,57.1667 283.5,69.8333 283.5,82.5C 280.833,82.5 278.167,82.5 275.5,82.5C 275.802,79.9407 275.468,77.6074 274.5,75.5C 267.5,75.5 260.5,75.5 253.5,75.5C 252.539,77.2646 252.205,79.2646 252.5,81.5C 249.833,81.5 247.167,81.5 244.5,81.5C 244.5,79.5 244.5,77.5 244.5,75.5C 237.352,74.5084 230.019,74.175 222.5,74.5C 222.5,77.1667 222.5,79.8333 222.5,82.5C 219.833,82.5 217.167,82.5 214.5,82.5C 214.5,69.8333 214.5,57.1667 214.5,44.5C 224.167,44.5 233.833,44.5 243.5,44.5C 244.461,42.7354 244.795,40.7354 244.5,38.5C 232.833,38.5 221.167,38.5 209.5,38.5C 209.5,36.5 209.5,34.5 209.5,32.5C 221.167,32.5 232.833,32.5 244.5,32.5C 244.5,29.8333 244.5,27.1667 244.5,24.5C 246.5,24.5 248.5,24.5 250.5,24.5C 250.5,22.5 250.5,20.5 250.5,18.5C 239.012,17.5051 227.345,17.1717 215.5,17.5C 215.5,20.1667 215.5,22.8333 215.5,25.5C 212.5,25.5 209.5,25.5 206.5,25.5C 206.5,23.1667 206.5,20.8333 206.5,18.5C 196.833,18.5 187.167,18.5 177.5,18.5C 177.5,15.8333 177.5,13.1667 177.5,10.5C 187.167,10.5 196.833,10.5 206.5,10.5C 206.5,7.5 206.5,4.5 206.5,1.5C 209.5,1.5 212.5,1.5 215.5,1.5 Z"/></g>
<g><path style="opacity:1" fill="#0a0a0a" d="M 388.5,20.5 C 387.518,23.9619 387.185,27.6286 387.5,31.5C 384.5,31.5 381.5,31.5 378.5,31.5C 378.5,27.8333 378.5,24.1667 378.5,20.5C 367.167,20.5 355.833,20.5 344.5,20.5C 343.518,23.9619 343.185,27.6286 343.5,31.5C 340.5,31.5 337.5,31.5 334.5,31.5C 334.5,27.8333 334.5,24.1667 334.5,20.5C 325.348,19.5064 316.015,19.1731 306.5,19.5C 306.5,17.1667 306.5,14.8333 306.5,12.5C 316.015,12.8269 325.348,12.4936 334.5,11.5C 334.5,8.16667 334.5,4.83333 334.5,1.5C 337.833,1.5 341.167,1.5 344.5,1.5C 344.5,4.83333 344.5,8.16667 344.5,11.5C 355.833,11.5 367.167,11.5 378.5,11.5C 378.5,8.16667 378.5,4.83333 378.5,1.5C 381.833,1.5 385.167,1.5 388.5,1.5C 388.5,4.83333 388.5,8.16667 388.5,11.5C 398.167,11.5 407.833,11.5 417.5,11.5C 417.5,14.5 417.5,17.5 417.5,20.5C 407.833,20.5 398.167,20.5 388.5,20.5 Z"/></g>
<g><path style="opacity:1" fill="#0d0d0d" d="M 485.5,3.5 C 488.833,3.5 492.167,3.5 495.5,3.5C 495.667,38.5016 495.5,73.5016 495,108.5C 494.27,112.896 491.77,115.73 487.5,117C 479.846,118.478 472.179,118.644 464.5,117.5C 463.568,114.47 462.235,111.637 460.5,109C 468.167,108.667 475.833,108.333 483.5,108C 484,107.5 484.5,107 485,106.5C 485.5,72.1683 485.667,37.835 485.5,3.5 Z"/></g>
<g><path style="opacity:1" fill="#94b045" d="M 95.5,27.5 C 94.1679,26.1696 93.3345,24.5029 93,22.5C 92.6667,23.8333 92.3333,25.1667 92,26.5C 90.4719,23.1587 88.4719,23.1587 86,26.5C 86.4387,24.2413 86.9387,21.908 87.5,19.5C 85.7085,19.366 84.0418,19.6993 82.5,20.5C 82.9678,17.0344 84.9678,15.3678 88.5,15.5C 88.6984,13.4247 88.8651,11.4247 89,9.5C 87.907,11.3492 86.5737,13.0158 85,14.5C 83.2017,9.19025 82.2017,9.52358 82,15.5C 80.883,14.0506 80.2163,12.3839 80,10.5C 78.6412,9.63504 77.4745,8.63504 76.5,7.5C 78.8649,4.78688 81.8649,2.78688 85.5,1.5C 86.4776,1.97665 87.3109,2.64332 88,3.5C 92.6611,10.3653 95.4944,18.0319 96.5,26.5C 96.3764,27.1067 96.0431,27.44 95.5,27.5 Z"/></g>
<g><path style="opacity:1" fill="#717171" d="M 666.5,8.5 C 635.167,8.5 603.833,8.5 572.5,8.5C 572.83,26.008 572.497,43.3414 571.5,60.5C 571.5,42.8333 571.5,25.1667 571.5,7.5C 603.338,7.16846 635.004,7.5018 666.5,8.5 Z"/></g>
<g><path style="opacity:1" fill="#030303" d="M 666.5,8.5 C 666.5,17.8333 666.5,27.1667 666.5,36.5C 638.167,36.5 609.833,36.5 581.5,36.5C 582.855,61.8842 579.355,86.5509 571,110.5C 569.985,113.21 568.485,115.543 566.5,117.5C 563.671,116.253 561.005,114.753 558.5,113C 567.338,96.6515 571.671,79.1515 571.5,60.5C 572.497,43.3414 572.83,26.008 572.5,8.5C 603.833,8.5 635.167,8.5 666.5,8.5 Z"/></g>
<g><path style="opacity:1" fill="#969696" d="M 215.5,1.5 C 216.473,3.9479 216.806,6.61456 216.5,9.5C 227.833,9.5 239.167,9.5 250.5,9.5C 239.012,10.4949 227.345,10.8283 215.5,10.5C 215.5,7.5 215.5,4.5 215.5,1.5 Z"/></g>
<g><path style="opacity:1" fill="#7e7e7e" d="M 581.5,16.5 C 606.661,15.5023 631.995,15.1689 657.5,15.5C 657.818,20.0323 657.485,24.3656 656.5,28.5C 656.5,24.5 656.5,20.5 656.5,16.5C 631.5,16.5 606.5,16.5 581.5,16.5 Z"/></g>
<g><path style="opacity:1" fill="#fefefe" d="M 581.5,16.5 C 606.5,16.5 631.5,16.5 656.5,16.5C 656.5,20.5 656.5,24.5 656.5,28.5C 631.5,28.5 606.5,28.5 581.5,28.5C 581.5,24.5 581.5,20.5 581.5,16.5 Z"/></g>
<g><path style="opacity:1" fill="#585858" d="M 250.5,18.5 C 239.167,18.5 227.833,18.5 216.5,18.5C 216.5,21.1667 216.5,23.8333 216.5,26.5C 212.958,26.8128 209.625,26.4794 206.5,25.5C 209.5,25.5 212.5,25.5 215.5,25.5C 215.5,22.8333 215.5,20.1667 215.5,17.5C 227.345,17.1717 239.012,17.5051 250.5,18.5 Z"/></g>
<g><path style="opacity:1" fill="#656565" d="M 259.5,9.5 C 269.833,9.5 280.167,9.5 290.5,9.5C 290.5,12.5 290.5,15.5 290.5,18.5C 280.167,18.5 269.833,18.5 259.5,18.5C 269.319,17.506 279.319,17.1726 289.5,17.5C 289.5,15.1667 289.5,12.8333 289.5,10.5C 279.319,10.8274 269.319,10.494 259.5,9.5 Z"/></g>
<g><path style="opacity:1" fill="#799a2d" d="M 76.5,7.5 C 77.4745,8.63504 78.6412,9.63504 80,10.5C 80.2163,12.3839 80.883,14.0506 82,15.5C 82.2017,9.52358 83.2017,9.19025 85,14.5C 86.5737,13.0158 87.907,11.3492 89,9.5C 88.8651,11.4247 88.6984,13.4247 88.5,15.5C 84.9678,15.3678 82.9678,17.0344 82.5,20.5C 81.8762,25.4993 81.0429,30.4993 80,35.5C 79.6667,32.8333 79.3333,30.1667 79,27.5C 77.1726,25.6984 76.0059,23.5318 75.5,21C 76.2942,17.0171 76.2942,12.8504 75.5,8.5C 75.5,7.83333 75.8333,7.5 76.5,7.5 Z"/></g>
<g><path style="opacity:1" fill="#2b2b2b" d="M 334.5,11.5 C 325.348,12.4936 316.015,12.8269 306.5,12.5C 306.5,14.8333 306.5,17.1667 306.5,19.5C 316.015,19.1731 325.348,19.5064 334.5,20.5C 324.833,20.5 315.167,20.5 305.5,20.5C 305.5,17.5 305.5,14.5 305.5,11.5C 315.167,11.5 324.833,11.5 334.5,11.5 Z"/></g>
<g><path style="opacity:1" fill="#9dbd3b" d="M 75.5,8.5 C 76.2942,12.8504 76.2942,17.0171 75.5,21C 76.0059,23.5318 77.1726,25.6984 79,27.5C 79.3333,30.1667 79.6667,32.8333 80,35.5C 81.0429,30.4993 81.8762,25.4993 82.5,20.5C 84.0418,19.6993 85.7085,19.366 87.5,19.5C 86.9387,21.908 86.4387,24.2413 86,26.5C 88.4719,23.1587 90.4719,23.1587 92,26.5C 92.3333,25.1667 92.6667,23.8333 93,22.5C 93.3345,24.5029 94.1679,26.1696 95.5,27.5C 95.5858,28.4959 95.2524,29.3292 94.5,30C 95.3081,30.3076 95.9747,30.8076 96.5,31.5C 95.499,36.172 94.499,40.8387 93.5,45.5C 90.6717,44.5033 88.005,44.5033 85.5,45.5C 81.7062,46.0281 79.0395,48.0281 77.5,51.5C 76.5869,48.6999 74.5869,47.3666 71.5,47.5C 70.4933,43.9939 68.9933,40.6606 67,37.5C 65.4345,38.0606 64.1011,37.3939 63,35.5C 62.3407,39.512 61.674,43.512 61,47.5C 59.1606,45.7988 57.3273,44.1322 55.5,42.5C 54.6946,39.1833 52.8612,36.5166 50,34.5C 49.6667,34.8333 49.3333,35.1667 49,35.5C 48.51,34.2068 48.3433,32.8734 48.5,31.5C 52.7702,32.1274 56.9369,33.1274 61,34.5C 63.0531,25.7292 66.7198,17.7292 72,10.5C 73.1127,9.69499 74.2794,9.02832 75.5,8.5 Z"/></g>
<g><path style="opacity:1" fill="#0c0c0c" d="M 185.5,25.5 C 193.025,27.929 200.025,31.429 206.5,36C 207.451,36.7175 207.617,37.5509 207,38.5C 205.471,39.7287 204.304,41.2287 203.5,43C 202.5,43.6667 201.5,43.6667 200.5,43C 194.434,38.6048 188.1,34.6048 181.5,31C 182.665,29.0083 183.998,27.175 185.5,25.5 Z"/></g>
<g><path style="opacity:1" fill="#9d9d9d" d="M 244.5,24.5 C 244.5,27.1667 244.5,29.8333 244.5,32.5C 232.833,32.5 221.167,32.5 209.5,32.5C 220.654,31.5052 231.988,31.1719 243.5,31.5C 243.198,28.9407 243.532,26.6074 244.5,24.5 Z"/></g>
<g><path style="opacity:1" fill="#929292" d="M 253.5,26.5 C 253.5,28.1667 253.5,29.8333 253.5,31.5C 260.5,31.5 267.5,31.5 274.5,31.5C 267.923,32.4992 260.59,32.8326 252.5,32.5C 252.205,30.2646 252.539,28.2646 253.5,26.5 Z"/></g>
<g><path style="opacity:1" fill="#7e7e7e" d="M 344.5,20.5 C 344.5,24.5 344.5,28.5 344.5,32.5C 341.287,32.19 338.287,32.5233 335.5,33.5C 334.833,33.5 334.5,33.1667 334.5,32.5C 334.5,32.1667 334.5,31.8333 334.5,31.5C 337.5,31.5 340.5,31.5 343.5,31.5C 343.185,27.6286 343.518,23.9619 344.5,20.5 Z"/></g>
<g><path style="opacity:1" fill="#7d7d7d" d="M 388.5,20.5 C 388.5,24.5 388.5,28.5 388.5,32.5C 384.958,32.8128 381.625,32.4794 378.5,31.5C 381.5,31.5 384.5,31.5 387.5,31.5C 387.185,27.6286 387.518,23.9619 388.5,20.5 Z"/></g>
<g><path style="opacity:1" fill="#040404" d="M 334.5,32.5 C 334.5,33.1667 334.833,33.5 335.5,33.5C 337.179,33.8923 338.846,34.3923 340.5,35C 337.126,40.9162 333.626,46.7495 330,52.5C 329.5,74.4975 329.333,96.4975 329.5,118.5C 326.5,118.5 323.5,118.5 320.5,118.5C 320.667,100.83 320.5,83.1635 320,65.5C 316,69.5 312,73.5 308,77.5C 306.039,75.0715 304.206,72.5715 302.5,70C 306.954,64.5438 311.787,59.3772 317,54.5C 322.091,47.9029 326.591,40.9029 330.5,33.5C 331.689,32.5713 333.022,32.238 334.5,32.5 Z"/></g>
<g><path style="opacity:1" fill="#080808" d="M 522.5,32.5 C 523.675,32.281 524.675,32.6143 525.5,33.5C 535.49,49.4811 543.323,66.4811 549,84.5C 549.72,86.1124 549.554,87.6124 548.5,89C 545.792,90.0695 543.125,91.2361 540.5,92.5C 534.742,72.4879 526.409,53.6546 515.5,36C 517.858,34.7245 520.192,33.5578 522.5,32.5 Z"/></g>
<g><path style="opacity:1" fill="#070707" d="M 451.5,33.5 C 454.807,34.0508 458.14,34.3841 461.5,34.5C 458.125,54.9039 450.625,73.5706 439,90.5C 436.252,88.5421 433.418,86.7088 430.5,85C 441.489,69.548 448.489,52.3813 451.5,33.5 Z"/></g>
<g><path style="opacity:1" fill="#b9b9b9" d="M 209.5,38.5 C 221.167,38.5 232.833,38.5 244.5,38.5C 244.795,40.7354 244.461,42.7354 243.5,44.5C 243.5,42.8333 243.5,41.1667 243.5,39.5C 231.988,39.8281 220.654,39.4948 209.5,38.5 Z"/></g>
<g><path style="opacity:1" fill="#b1b1b1" d="M 289.5,38.5 C 277.678,39.4951 265.678,39.8284 253.5,39.5C 253.5,41.1667 253.5,42.8333 253.5,44.5C 252.539,42.7354 252.205,40.7354 252.5,38.5C 264.833,38.5 277.167,38.5 289.5,38.5 Z"/></g>
<g><path style="opacity:1" fill="#111111" d="M 342.5,37.5 C 367.833,37.5 393.167,37.5 418.5,37.5C 418.5,40.5 418.5,43.5 418.5,46.5C 414.5,46.5 410.5,46.5 406.5,46.5C 406.978,68.5911 406.478,90.5911 405,112.5C 403.786,114.049 402.286,115.215 400.5,116C 393.199,117.635 385.865,117.802 378.5,116.5C 377.294,113.921 375.961,111.421 374.5,109C 381.826,108.5 389.159,108.334 396.5,108.5C 396.5,87.8333 396.5,67.1667 396.5,46.5C 378.5,46.5 360.5,46.5 342.5,46.5C 342.5,43.5 342.5,40.5 342.5,37.5 Z"/></g>
<g><path style="opacity:1" fill="#898989" d="M 283.5,44.5 C 284.495,57.3226 284.829,70.3226 284.5,83.5C 281.167,83.5 277.833,83.5 274.5,83.5C 274.5,80.8333 274.5,78.1667 274.5,75.5C 275.468,77.6074 275.802,79.9407 275.5,82.5C 278.167,82.5 280.833,82.5 283.5,82.5C 283.5,69.8333 283.5,57.1667 283.5,44.5 Z"/></g>
<g><path style="opacity:1" fill="#050505" d="M 630.5,106.5 C 644.657,107.496 658.99,107.829 673.5,107.5C 673.5,109.833 673.5,112.167 673.5,114.5C 641.833,114.5 610.167,114.5 578.5,114.5C 578.5,112.167 578.5,109.833 578.5,107.5C 592.833,107.5 607.167,107.5 621.5,107.5C 621.5,102.5 621.5,97.5 621.5,92.5C 610.5,92.5 599.5,92.5 588.5,92.5C 588.5,90.1667 588.5,87.8333 588.5,85.5C 599.5,85.5 610.5,85.5 621.5,85.5C 621.815,81.6286 621.482,77.9619 620.5,74.5C 610.108,74.3858 599.774,75.0524 589.5,76.5C 588.859,73.779 588.359,71.1123 588,68.5C 594.708,64.7984 600.541,59.9651 605.5,54C 597.841,53.5003 590.174,53.3336 582.5,53.5C 582.5,50.8333 582.5,48.1667 582.5,45.5C 611.833,45.5 641.167,45.5 670.5,45.5C 670.5,48.1667 670.5,50.8333 670.5,53.5C 661.827,53.3336 653.16,53.5002 644.5,54C 653.419,60.2479 661.752,67.2479 669.5,75C 667.301,76.6971 664.968,78.1971 662.5,79.5C 660.016,77.517 657.683,75.3504 655.5,73C 647.833,72.3333 640.167,72.3333 632.5,73C 630.611,76.8362 629.945,81.0029 630.5,85.5C 641.833,85.5 653.167,85.5 664.5,85.5C 664.5,87.8333 664.5,90.1667 664.5,92.5C 653.167,92.5 641.833,92.5 630.5,92.5C 630.5,97.1667 630.5,101.833 630.5,106.5 Z"/></g>
<g><path style="opacity:1" fill="#8db044" d="M 85.5,45.5 C 88.005,44.5033 90.6717,44.5033 93.5,45.5C 95.5681,46.3748 97.5681,47.5415 99.5,49C 100.823,49.8159 101.489,50.9826 101.5,52.5C 96.6606,53.3991 91.994,54.5658 87.5,56C 89.9968,53.7297 92.3302,51.3963 94.5,49C 92.4898,47.0463 89.4898,45.8797 85.5,45.5 Z"/></g>
<g><path style="opacity:1" fill="#638c36" d="M 85.5,45.5 C 89.4898,45.8797 92.4898,47.0463 94.5,49C 92.3302,51.3963 89.9968,53.7297 87.5,56C 91.994,54.5658 96.6606,53.3991 101.5,52.5C 100.71,53.7942 99.7101,54.9609 98.5,56C 98.7284,56.3988 99.0618,56.5654 99.5,56.5C 97.2088,57.765 94.8754,59.0983 92.5,60.5C 90.0471,61.8165 87.3805,62.6498 84.5,63C 85.1667,63.3333 85.8333,63.6667 86.5,64C 83.0132,64.9887 80.6799,67.1554 79.5,70.5C 78.2724,67.1527 79.6057,64.986 83.5,64C 81.6652,63.0723 81.3318,61.9056 82.5,60.5C 79.6809,57.9251 80.0142,56.0918 83.5,55C 82.3662,50.5187 80.8662,50.3521 79,54.5C 77.9614,53.7562 77.4614,52.7562 77.5,51.5C 79.0395,48.0281 81.7062,46.0281 85.5,45.5 Z"/></g>
<g><path style="opacity:1" fill="#0c0c0c" d="M 179.5,50.5 C 186.919,53.3763 193.919,57.0429 200.5,61.5C 201.583,62.365 201.749,63.365 201,64.5C 199.615,65.5505 198.615,66.8839 198,68.5C 197.282,69.4506 196.449,69.6172 195.5,69C 189.338,64.0825 182.671,59.9158 175.5,56.5C 177.278,54.736 178.611,52.736 179.5,50.5 Z"/></g>
<g><path style="opacity:1" fill="#f9f9f9" d="M 644.5,63.5 C 641.5,64.1667 638.5,64.8333 635.5,65.5C 627.156,65.6119 618.822,65.9452 610.5,66.5C 608.585,66.7845 606.919,66.4511 605.5,65.5C 609.605,61.898 613.605,58.0647 617.5,54C 625.5,53.3333 633.5,53.3333 641.5,54C 639.939,54.941 638.605,56.1076 637.5,57.5C 639.266,60.2085 641.599,62.2085 644.5,63.5 Z"/></g>
<g><path style="opacity:1" fill="#3e671a" d="M 77.5,51.5 C 77.4614,52.7562 77.9614,53.7562 79,54.5C 80.8662,50.3521 82.3662,50.5187 83.5,55C 80.0142,56.0918 79.6809,57.9251 82.5,60.5C 81.3318,61.9056 81.6652,63.0723 83.5,64C 79.6057,64.986 78.2724,67.1527 79.5,70.5C 79.44,71.0431 79.1067,71.3764 78.5,71.5C 71.9462,68.9757 72.2795,66.9757 79.5,65.5C 79.33,64.1779 79.6634,63.0113 80.5,62C 78.981,60.6487 77.6477,59.1487 76.5,57.5C 72.4046,59.6066 72.738,60.9399 77.5,61.5C 75.2549,62.2082 73.2549,63.2082 71.5,64.5C 70.8826,64.6107 70.3826,64.944 70,65.5C 67.7664,63.3002 65.2664,61.4669 62.5,60C 64.5127,58.2087 64.5127,56.8753 62.5,56C 63.448,55.5172 64.448,55.3505 65.5,55.5C 65.2267,53.549 65.8934,52.049 67.5,51C 65.7412,50.2025 64.0745,50.3691 62.5,51.5C 62.9767,52.4776 63.6433,53.3109 64.5,54C 64.1667,54.1667 63.8333,54.3333 63.5,54.5C 61.5756,54.433 59.5756,54.0997 57.5,53.5C 58.7287,52.7189 60.062,52.2189 61.5,52C 59.0132,50.208 56.3465,48.708 53.5,47.5C 54.8333,47.1667 56.1667,46.8333 57.5,46.5C 56.3147,45.147 54.9814,43.9803 53.5,43C 54.0944,42.5357 54.7611,42.369 55.5,42.5C 57.3273,44.1322 59.1606,45.7988 61,47.5C 61.674,43.512 62.3407,39.512 63,35.5C 64.1011,37.3939 65.4345,38.0606 67,37.5C 68.9933,40.6606 70.4933,43.9939 71.5,47.5C 74.5869,47.3666 76.5869,48.6999 77.5,51.5 Z"/></g>
<g><path style="opacity:1" fill="#c1c1c1" d="M 222.5,50.5 C 229.833,50.5 237.167,50.5 244.5,50.5C 244.5,52.8333 244.5,55.1667 244.5,57.5C 237.167,57.5 229.833,57.5 222.5,57.5C 222.5,55.1667 222.5,52.8333 222.5,50.5 Z"/></g>
<g><path style="opacity:1" fill="#fefffe" d="M 223.5,51.5 C 230.167,51.5 236.833,51.5 243.5,51.5C 243.5,53.1667 243.5,54.8333 243.5,56.5C 236.833,56.5 230.167,56.5 223.5,56.5C 223.5,54.8333 223.5,53.1667 223.5,51.5 Z"/></g>
<g><path style="opacity:1" fill="#b7b7b7" d="M 252.5,50.5 C 260.167,50.5 267.833,50.5 275.5,50.5C 275.5,52.8333 275.5,55.1667 275.5,57.5C 267.833,57.5 260.167,57.5 252.5,57.5C 252.5,55.1667 252.5,52.8333 252.5,50.5 Z"/></g>
<g><path style="opacity:1" fill="#fefffe" d="M 253.5,51.5 C 260.5,51.5 267.5,51.5 274.5,51.5C 274.5,53.1667 274.5,54.8333 274.5,56.5C 267.5,56.5 260.5,56.5 253.5,56.5C 253.5,54.8333 253.5,53.1667 253.5,51.5 Z"/></g>
<g><path style="opacity:1" fill="#070707" d="M 344.5,58.5 C 357.833,58.5 371.167,58.5 384.5,58.5C 384.5,70.5 384.5,82.5 384.5,94.5C 374.167,94.5 363.833,94.5 353.5,94.5C 352.532,96.6074 352.198,98.9407 352.5,101.5C 349.833,101.5 347.167,101.5 344.5,101.5C 344.5,87.1667 344.5,72.8333 344.5,58.5 Z"/></g>
<g><path style="opacity:1" fill="#5f8820" d="M 48.5,31.5 C 48.3433,32.8734 48.51,34.2068 49,35.5C 49.3333,35.1667 49.6667,34.8333 50,34.5C 52.8612,36.5166 54.6946,39.1833 55.5,42.5C 54.7611,42.369 54.0944,42.5357 53.5,43C 54.9814,43.9803 56.3147,45.147 57.5,46.5C 56.1667,46.8333 54.8333,47.1667 53.5,47.5C 56.3465,48.708 59.0132,50.208 61.5,52C 60.062,52.2189 58.7287,52.7189 57.5,53.5C 59.5756,54.0997 61.5756,54.433 63.5,54.5C 63.8333,54.3333 64.1667,54.1667 64.5,54C 63.6433,53.3109 62.9767,52.4776 62.5,51.5C 64.0745,50.3691 65.7412,50.2025 67.5,51C 65.8934,52.049 65.2267,53.549 65.5,55.5C 64.448,55.3505 63.448,55.5172 62.5,56C 64.5127,56.8753 64.5127,58.2087 62.5,60C 65.2664,61.4669 67.7664,63.3002 70,65.5C 70.3826,64.944 70.8826,64.6107 71.5,64.5C 71.5,65.8333 71.5,67.1667 71.5,68.5C 70.1667,68.5 68.8333,68.5 67.5,68.5C 66.8333,68.1667 66.1667,67.8333 65.5,67.5C 64.7632,64.4477 62.7632,62.781 59.5,62.5C 56.6356,60.9767 54.969,58.6433 54.5,55.5C 54.369,54.7611 54.5357,54.0944 55,53.5C 55.6543,54.6956 56.1543,54.6956 56.5,53.5C 55.4099,51.997 54.2433,51.6637 53,52.5C 51.4947,50.7017 51.3281,48.8684 52.5,47C 51.9056,46.5357 51.2389,46.369 50.5,46.5C 48.87,44.9739 48.0367,42.9739 48,40.5C 47.1955,37.3035 47.3622,34.3035 48.5,31.5 Z"/></g>
<g><path style="opacity:1" fill="#a3a3a3" d="M 243.5,69.5 C 243.5,67.5 243.5,65.5 243.5,63.5C 236.833,63.5 230.167,63.5 223.5,63.5C 223.5,65.5 223.5,67.5 223.5,69.5C 222.532,67.3926 222.198,65.0593 222.5,62.5C 229.833,62.5 237.167,62.5 244.5,62.5C 244.802,65.0593 244.468,67.3926 243.5,69.5 Z"/></g>
<g><path style="opacity:1" fill="#959595" d="M 274.5,69.5 C 274.5,67.5 274.5,65.5 274.5,63.5C 267.5,63.5 260.5,63.5 253.5,63.5C 253.5,65.5 253.5,67.5 253.5,69.5C 252.532,67.3926 252.198,65.0593 252.5,62.5C 260.167,62.5 267.833,62.5 275.5,62.5C 275.802,65.0593 275.468,67.3926 274.5,69.5 Z"/></g>
<g><path style="opacity:1" fill="#93b538" d="M 50.5,46.5 C 51.2389,46.369 51.9056,46.5357 52.5,47C 51.3281,48.8684 51.4947,50.7017 53,52.5C 54.2433,51.6637 55.4099,51.997 56.5,53.5C 56.1543,54.6956 55.6543,54.6956 55,53.5C 54.5357,54.0944 54.369,54.7611 54.5,55.5C 49.6634,52.1268 44.3301,50.2935 38.5,50C 41.5032,51.1662 44.1698,52.8328 46.5,55C 42.8629,54.1112 39.3629,52.6112 36,50.5C 35.2888,52.3668 35.7888,53.8668 37.5,55C 35.8739,54.8047 34.2072,54.8047 32.5,55C 32.1013,56.2941 32.1013,57.7941 32.5,59.5C 35.6014,61.0984 38.2681,63.2651 40.5,66C 45.4635,67.5882 50.4635,67.7549 55.5,66.5C 54.6744,65.549 54.5078,64.549 55,63.5C 57.8743,65.8909 59.3743,65.5576 59.5,62.5C 62.7632,62.781 64.7632,64.4477 65.5,67.5C 64.4226,66.9816 63.2559,66.6483 62,66.5C 59.2915,67.1086 56.7915,68.1086 54.5,69.5C 42.2246,67.611 29.8913,66.111 17.5,65C 16.6721,64.0853 15.6721,63.4186 14.5,63C 15.8333,62.6667 17.1667,62.3333 18.5,62C 16.6228,60.8147 14.6228,59.8147 12.5,59C 11.9781,58.4387 11.6448,57.772 11.5,57C 12.7073,55.6998 13.3739,54.1998 13.5,52.5C 17.9707,52.6724 18.3041,53.5057 14.5,55C 15.8544,56.2937 17.1877,56.4604 18.5,55.5C 21.157,56.4657 23.8236,56.9657 26.5,57C 24.0585,55.5544 21.3919,54.7211 18.5,54.5C 18.3505,53.448 18.5172,52.448 19,51.5C 20.676,52.0611 22.0094,53.0611 23,54.5C 23.6776,52.4024 23.5109,50.4024 22.5,48.5C 23.7498,48.4226 24.5831,47.756 25,46.5C 27.6667,47.8333 30.3333,47.8333 33,46.5C 36.2904,48.032 39.6237,48.3654 43,47.5C 45.8216,50.0673 48.3216,49.734 50.5,46.5 Z"/></g>
<g><path style="opacity:1" fill="#a0c231" d="M 54.5,55.5 C 54.969,58.6433 56.6356,60.9767 59.5,62.5C 59.3743,65.5576 57.8743,65.8909 55,63.5C 54.5078,64.549 54.6744,65.549 55.5,66.5C 50.4635,67.7549 45.4635,67.5882 40.5,66C 38.2681,63.2651 35.6014,61.0984 32.5,59.5C 32.1013,57.7941 32.1013,56.2941 32.5,55C 34.2072,54.8047 35.8739,54.8047 37.5,55C 35.7888,53.8668 35.2888,52.3668 36,50.5C 39.3629,52.6112 42.8629,54.1112 46.5,55C 44.1698,52.8328 41.5032,51.1662 38.5,50C 44.3301,50.2935 49.6634,52.1268 54.5,55.5 Z"/></g>
<g><path style="opacity:1" fill="#fefffe" d="M 243.5,69.5 C 236.833,69.5 230.167,69.5 223.5,69.5C 223.5,67.5 223.5,65.5 223.5,63.5C 230.167,63.5 236.833,63.5 243.5,63.5C 243.5,65.5 243.5,67.5 243.5,69.5 Z"/></g>
<g><path style="opacity:1" fill="#fefffe" d="M 274.5,69.5 C 267.5,69.5 260.5,69.5 253.5,69.5C 253.5,67.5 253.5,65.5 253.5,63.5C 260.5,63.5 267.5,63.5 274.5,63.5C 274.5,65.5 274.5,67.5 274.5,69.5 Z"/></g>
<g><path style="opacity:1" fill="#797979" d="M 644.5,63.5 C 645.043,63.56 645.376,63.8933 645.5,64.5C 642.232,65.487 638.898,65.8204 635.5,65.5C 638.5,64.8333 641.5,64.1667 644.5,63.5 Z"/></g>
<g><path style="opacity:1" fill="#86a72e" d="M 124.5,60.5 C 133.67,64.4119 141.337,70.2452 147.5,78C 147.167,78.3333 146.833,78.6667 146.5,79C 149.631,81.434 149.964,83.934 147.5,86.5C 145.865,84.1232 143.532,82.6232 140.5,82C 141.563,80.8118 142.897,80.3118 144.5,80.5C 144.703,78.6096 144.037,77.1096 142.5,76C 134.33,75.4119 126.33,75.9119 118.5,77.5C 110.161,76.8884 101.828,76.2218 93.5,75.5C 89.1869,76.0095 85.1869,75.3429 81.5,73.5C 81.0679,72.2905 80.4013,71.2905 79.5,70.5C 80.6799,67.1554 83.0132,64.9887 86.5,64C 85.8333,63.6667 85.1667,63.3333 84.5,63C 87.3805,62.6498 90.0471,61.8165 92.5,60.5C 91.4019,61.397 91.4019,62.2303 92.5,63C 90.1088,64.3086 90.1088,65.3086 92.5,66C 90.9255,66.3357 89.5922,67.1691 88.5,68.5C 89.5217,69.354 90.3551,70.354 91,71.5C 92,70.5 93,69.5 94,68.5C 94.6172,69.4491 94.4506,70.2825 93.5,71C 94.7702,71.8996 95.7702,73.0663 96.5,74.5C 99.8547,70.928 103.688,67.928 108,65.5C 108.781,64.0563 108.614,62.723 107.5,61.5C 104.52,63.0476 101.52,64.2142 98.5,65C 102.737,61.0245 107.737,59.3578 113.5,60C 112.234,60.3095 111.067,60.8095 110,61.5C 109.568,62.6001 110.068,63.2668 111.5,63.5C 113.801,62.6042 116.134,62.4375 118.5,63C 111.898,64.2771 106.231,67.2771 101.5,72C 101.998,73.1581 102.831,73.9915 104,74.5C 105.44,73.8524 106.94,73.5191 108.5,73.5C 108.5,72.5 108.5,71.5 108.5,70.5C 113.116,68.933 117.783,67.2663 122.5,65.5C 122.833,65.1667 123.167,64.8333 123.5,64.5C 122.271,63.7189 120.938,63.2189 119.5,63C 121.175,62.0147 122.842,61.1814 124.5,60.5 Z"/></g>
<g><path style="opacity:1" fill="#6a6a6a" d="M 605.5,65.5 C 606.919,66.4511 608.585,66.7845 610.5,66.5C 608.372,67.6291 606.039,67.7958 603.5,67C 604.044,66.2828 604.711,65.7828 605.5,65.5 Z"/></g>
<g><path style="opacity:1" fill="#769837" d="M 22.5,48.5 C 23.5109,50.4024 23.6776,52.4024 23,54.5C 22.0094,53.0611 20.676,52.0611 19,51.5C 18.5172,52.448 18.3505,53.448 18.5,54.5C 21.3919,54.7211 24.0585,55.5544 26.5,57C 23.8236,56.9657 21.157,56.4657 18.5,55.5C 17.1877,56.4604 15.8544,56.2937 14.5,55C 18.3041,53.5057 17.9707,52.6724 13.5,52.5C 13.3739,54.1998 12.7073,55.6998 11.5,57C 11.6448,57.772 11.9781,58.4387 12.5,59C 14.6228,59.8147 16.6228,60.8147 18.5,62C 17.1667,62.3333 15.8333,62.6667 14.5,63C 15.6721,63.4186 16.6721,64.0853 17.5,65C 29.8913,66.111 42.2246,67.611 54.5,69.5C 53.8333,70.8333 53.1667,72.1667 52.5,73.5C 51.1434,72.3146 49.6434,71.3146 48,70.5C 44.3105,72.7847 40.4772,74.7847 36.5,76.5C 36.1667,76.3333 35.8333,76.1667 35.5,76C 42.567,71.5684 41.9004,69.9018 33.5,71C 31.714,71.7845 30.214,72.9512 29,74.5C 28.2496,73.8742 27.4162,73.3742 26.5,73C 28.6317,72.0796 30.6317,70.9129 32.5,69.5C 29.2634,69.1361 26.0968,68.8027 23,68.5C 18.4254,69.8026 13.9254,71.3026 9.5,73C 12.6662,75.6104 16.1662,76.1104 20,74.5C 20.5,74.8333 21,75.1667 21.5,75.5C 20.1667,76.1667 18.8333,76.8333 17.5,77.5C 22.6007,80.7257 26.9341,80.0591 30.5,75.5C 31.7362,76.2458 33.0695,76.5792 34.5,76.5C 34.2275,78.9582 35.2275,80.6249 37.5,81.5C 40.8171,80.9337 43.3171,79.267 45,76.5C 46.4404,77.9304 46.7737,79.597 46,81.5C 45.4387,80.9781 44.772,80.6448 44,80.5C 41.3462,81.8672 38.5129,82.8672 35.5,83.5C 39.8856,84.795 44.219,84.6283 48.5,83C 49.0848,81.6976 49.7515,80.531 50.5,79.5C 50.8039,80.1499 51.1373,80.8165 51.5,81.5C 50.0473,84.4247 49.0473,87.4247 48.5,90.5C 48.0296,89.3065 47.0296,88.6399 45.5,88.5C 43.6619,87.8877 41.9953,87.8877 40.5,88.5C 32.2311,85.6818 23.8977,83.0151 15.5,80.5C 12.5,78.5 9.5,76.5 6.5,74.5C 4.14769,71.1099 1.81436,67.7766 -0.5,64.5C -0.5,63.5 -0.5,62.5 -0.5,61.5C 2.00158,59.8304 4.00158,57.6637 5.5,55C 7.43571,54.187 9.43571,53.687 11.5,53.5C 11.5,52.5 11.5,51.5 11.5,50.5C 15.1211,49.6275 18.7878,48.9608 22.5,48.5 Z"/></g>
<g><path style="opacity:1" fill="#fdfdfd" d="M 353.5,66.5 C 360.833,66.5 368.167,66.5 375.5,66.5C 375.5,73.1667 375.5,79.8333 375.5,86.5C 368.167,86.5 360.833,86.5 353.5,86.5C 353.5,79.8333 353.5,73.1667 353.5,66.5 Z"/></g>
<g><path style="opacity:1" fill="#95b62e" d="M 99.5,56.5 C 108.1,56.4335 116.433,57.7669 124.5,60.5C 122.842,61.1814 121.175,62.0147 119.5,63C 120.938,63.2189 122.271,63.7189 123.5,64.5C 123.167,64.8333 122.833,65.1667 122.5,65.5C 117.783,67.2663 113.116,68.933 108.5,70.5C 108.5,71.5 108.5,72.5 108.5,73.5C 106.94,73.5191 105.44,73.8524 104,74.5C 102.831,73.9915 101.998,73.1581 101.5,72C 106.231,67.2771 111.898,64.2771 118.5,63C 116.134,62.4375 113.801,62.6042 111.5,63.5C 110.068,63.2668 109.568,62.6001 110,61.5C 111.067,60.8095 112.234,60.3095 113.5,60C 107.737,59.3578 102.737,61.0245 98.5,65C 101.52,64.2142 104.52,63.0476 107.5,61.5C 108.614,62.723 108.781,64.0563 108,65.5C 103.688,67.928 99.8547,70.928 96.5,74.5C 95.7702,73.0663 94.7702,71.8996 93.5,71C 94.4506,70.2825 94.6172,69.4491 94,68.5C 93,69.5 92,70.5 91,71.5C 90.3551,70.354 89.5217,69.354 88.5,68.5C 89.5922,67.1691 90.9255,66.3357 92.5,66C 90.1088,65.3086 90.1088,64.3086 92.5,63C 91.4019,62.2303 91.4019,61.397 92.5,60.5C 94.8754,59.0983 97.2088,57.765 99.5,56.5 Z"/></g>
<g><path style="opacity:1" fill="#70924b" d="M 65.5,67.5 C 66.1667,67.8333 66.8333,68.1667 67.5,68.5C 66.1274,71.5873 63.9607,72.9207 61,72.5C 60.5439,73.7441 61.0439,74.5774 62.5,75C 61.1092,76.6501 59.6092,77.1501 58,76.5C 56.4933,78.008 54.8267,79.3413 53,80.5C 52.5831,79.244 51.7498,78.5774 50.5,78.5C 49.6016,77.8423 48.6016,77.1757 47.5,76.5C 48.6507,75.269 49.8173,75.269 51,76.5C 52.0386,75.7562 52.5386,74.7562 52.5,73.5C 53.1667,72.1667 53.8333,70.8333 54.5,69.5C 56.7915,68.1086 59.2915,67.1086 62,66.5C 63.2559,66.6483 64.4226,66.9816 65.5,67.5 Z"/></g>
<g><path style="opacity:1" fill="#666666" d="M 244.5,75.5 C 237.5,75.5 230.5,75.5 223.5,75.5C 223.802,78.0593 223.468,80.3926 222.5,82.5C 222.5,79.8333 222.5,77.1667 222.5,74.5C 230.019,74.175 237.352,74.5084 244.5,75.5 Z"/></g>
<g><path style="opacity:1" fill="#3d5f21" d="M 79.5,70.5 C 80.4013,71.2905 81.0679,72.2905 81.5,73.5C 82.3449,76.5144 82.3449,79.8478 81.5,83.5C 79.739,84.0351 78.4057,85.0351 77.5,86.5C 77.4801,88.5512 76.8134,89.2179 75.5,88.5C 76.4394,85.0733 76.4394,82.5733 75.5,81C 73.2206,80.594 71.8873,79.2607 71.5,77C 72.2893,76.4536 73.2893,75.7869 74.5,75C 73.2298,74.1004 72.2298,72.9337 71.5,71.5C 68.4947,75.5065 65.9947,79.8398 64,84.5C 63.586,84.0426 63.086,83.7093 62.5,83.5C 60.3584,84.6005 58.1917,85.6005 56,86.5C 55.3123,87.3317 55.479,87.9984 56.5,88.5C 57.4255,87.3595 58.2588,87.3595 59,88.5C 60.0302,86.2236 61.5302,85.5569 63.5,86.5C 59.5361,89.6327 56.0361,93.2994 53,97.5C 52.4209,103.98 53.0876,103.98 55,97.5C 59.6703,93.3583 60.6703,94.3583 58,100.5C 56.322,102.666 54.1553,103.999 51.5,104.5C 49.8527,100.024 48.8527,95.3571 48.5,90.5C 49.0473,87.4247 50.0473,84.4247 51.5,81.5C 51.1373,80.8165 50.8039,80.1499 50.5,79.5C 50.5,79.1667 50.5,78.8333 50.5,78.5C 51.7498,78.5774 52.5831,79.244 53,80.5C 54.8267,79.3413 56.4933,78.008 58,76.5C 59.6092,77.1501 61.1092,76.6501 62.5,75C 61.0439,74.5774 60.5439,73.7441 61,72.5C 63.9607,72.9207 66.1274,71.5873 67.5,68.5C 68.8333,68.5 70.1667,68.5 71.5,68.5C 71.5,67.1667 71.5,65.8333 71.5,64.5C 73.2549,63.2082 75.2549,62.2082 77.5,61.5C 72.738,60.9399 72.4046,59.6066 76.5,57.5C 77.6477,59.1487 78.981,60.6487 80.5,62C 79.6634,63.0113 79.33,64.1779 79.5,65.5C 72.2795,66.9757 71.9462,68.9757 78.5,71.5C 79.1067,71.3764 79.44,71.0431 79.5,70.5 Z"/></g>
<g><path style="opacity:1" fill="#0a0a0a" d="M 197.5,79.5 C 201.104,80.5877 202.937,82.921 203,86.5C 197.92,96.3274 192.587,105.994 187,115.5C 185.951,116.517 184.784,116.684 183.5,116C 181.792,114.49 180.126,112.99 178.5,111.5C 185.348,101.136 191.682,90.4692 197.5,79.5 Z"/></g>
<g><path style="opacity:1" fill="#040404" d="M 290.5,93.5 C 283.833,93.5 277.167,93.5 270.5,93.5C 270.5,99.1667 270.5,104.833 270.5,110.5C 270.607,112.903 269.607,114.736 267.5,116C 261.593,117.361 255.593,117.861 249.5,117.5C 249.414,115.323 248.747,113.323 247.5,111.5C 252.048,110.808 256.548,110.141 261,109.5C 261.499,104.511 261.666,99.5111 261.5,94.5C 250.341,93.3407 239.008,93.1741 227.5,94C 228.044,94.7172 228.711,95.2172 229.5,95.5C 234.105,98.4357 238.105,102.102 241.5,106.5C 240.129,108.705 238.296,110.372 236,111.5C 230.81,106.646 225.31,102.146 219.5,98C 220.833,96.6667 222.167,95.3333 223.5,94C 218.177,93.5006 212.844,93.334 207.5,93.5C 207.5,91.1667 207.5,88.8333 207.5,86.5C 225.5,86.5 243.5,86.5 261.5,86.5C 261.5,84.5 261.5,82.5 261.5,80.5C 264.5,80.5 267.5,80.5 270.5,80.5C 270.5,82.5 270.5,84.5 270.5,86.5C 277.167,86.5 283.833,86.5 290.5,86.5C 290.5,88.8333 290.5,91.1667 290.5,93.5 Z"/></g>
<g><path style="opacity:1" fill="#7c7c7c" d="M 253.5,75.5 C 253.5,77.8333 253.5,80.1667 253.5,82.5C 250.287,82.81 247.287,82.4767 244.5,81.5C 247.167,81.5 249.833,81.5 252.5,81.5C 252.205,79.2646 252.539,77.2646 253.5,75.5 Z"/></g>
<g><path style="opacity:1" fill="#84a734" d="M 52.5,73.5 C 52.5386,74.7562 52.0386,75.7562 51,76.5C 49.8173,75.269 48.6507,75.269 47.5,76.5C 48.6016,77.1757 49.6016,77.8423 50.5,78.5C 50.5,78.8333 50.5,79.1667 50.5,79.5C 49.7515,80.531 49.0848,81.6976 48.5,83C 44.219,84.6283 39.8856,84.795 35.5,83.5C 38.5129,82.8672 41.3462,81.8672 44,80.5C 44.772,80.6448 45.4387,80.9781 46,81.5C 46.7737,79.597 46.4404,77.9304 45,76.5C 43.3171,79.267 40.8171,80.9337 37.5,81.5C 35.2275,80.6249 34.2275,78.9582 34.5,76.5C 33.0695,76.5792 31.7362,76.2458 30.5,75.5C 26.9341,80.0591 22.6007,80.7257 17.5,77.5C 18.8333,76.8333 20.1667,76.1667 21.5,75.5C 21,75.1667 20.5,74.8333 20,74.5C 16.1662,76.1104 12.6662,75.6104 9.5,73C 13.9254,71.3026 18.4254,69.8026 23,68.5C 26.0968,68.8027 29.2634,69.1361 32.5,69.5C 30.6317,70.9129 28.6317,72.0796 26.5,73C 27.4162,73.3742 28.2496,73.8742 29,74.5C 30.214,72.9512 31.714,71.7845 33.5,71C 41.9004,69.9018 42.567,71.5684 35.5,76C 35.8333,76.1667 36.1667,76.3333 36.5,76.5C 40.4772,74.7847 44.3105,72.7847 48,70.5C 49.6434,71.3146 51.1434,72.3146 52.5,73.5 Z"/></g>
<g><path style="opacity:1" fill="#adadad" d="M 620.5,74.5 C 621.482,77.9619 621.815,81.6286 621.5,85.5C 610.5,85.5 599.5,85.5 588.5,85.5C 598.987,84.5056 609.654,84.1722 620.5,84.5C 620.5,81.1667 620.5,77.8333 620.5,74.5 Z"/></g>
<g><path style="opacity:1" fill="#6b8c32" d="M 147.5,86.5 C 145.589,88.7024 143.255,90.369 140.5,91.5C 140.67,90.1779 140.337,89.0113 139.5,88C 134.844,87.3659 131.177,85.0326 128.5,81C 129.167,80.6667 129.833,80.3333 130.5,80C 126.878,78.8944 123.211,78.5611 119.5,79C 121.436,79.813 123.436,80.313 125.5,80.5C 125.351,81.552 125.517,82.552 126,83.5C 126.718,82.5494 127.551,82.3828 128.5,83C 135.588,88.9797 134.588,90.6464 125.5,88C 122.491,84.6584 119.157,81.6584 115.5,79C 116.737,78.7679 117.737,78.2679 118.5,77.5C 126.33,75.9119 134.33,75.4119 142.5,76C 144.037,77.1096 144.703,78.6096 144.5,80.5C 142.897,80.3118 141.563,80.8118 140.5,82C 143.532,82.6232 145.865,84.1232 147.5,86.5 Z"/></g>
<g><path style="opacity:1" fill="#86a92b" d="M 132.5,76.5 C 135.187,76.3359 137.854,76.5026 140.5,77C 143.167,78 143.167,79 140.5,80C 136.467,81.0404 132.801,80.3737 129.5,78C 130.737,77.7679 131.737,77.2679 132.5,76.5 Z"/></g>
<g><path style="opacity:1" fill="#5d7f34" d="M 93.5,75.5 C 101.828,76.2218 110.161,76.8884 118.5,77.5C 117.737,78.2679 116.737,78.7679 115.5,79C 119.157,81.6584 122.491,84.6584 125.5,88C 134.588,90.6464 135.588,88.9797 128.5,83C 127.551,82.3828 126.718,82.5494 126,83.5C 125.517,82.552 125.351,81.552 125.5,80.5C 123.436,80.313 121.436,79.813 119.5,79C 123.211,78.5611 126.878,78.8944 130.5,80C 129.833,80.3333 129.167,80.6667 128.5,81C 131.177,85.0326 134.844,87.3659 139.5,88C 140.337,89.0113 140.67,90.1779 140.5,91.5C 131.815,94.6689 122.815,96.0023 113.5,95.5C 114.398,94.8423 115.398,94.1757 116.5,93.5C 115.975,92.8076 115.308,92.3076 114.5,92C 115.308,91.6924 115.975,91.1924 116.5,90.5C 114.5,89.1667 112.5,87.8333 110.5,86.5C 109.833,87.8333 109.167,89.1667 108.5,90.5C 106.667,91.0521 105,91.8855 103.5,93C 101.711,93.5205 100.044,93.1871 98.5,92C 96.3969,88.7881 93.8969,85.2881 91,81.5C 90.51,80.2068 90.3433,78.8734 90.5,77.5C 92.1788,77.7148 93.1788,77.0481 93.5,75.5 Z"/></g>
<g><path style="opacity:1" fill="#4e6d25" d="M 81.5,73.5 C 85.1869,75.3429 89.1869,76.0095 93.5,75.5C 93.1788,77.0481 92.1788,77.7148 90.5,77.5C 90.3433,78.8734 90.51,80.2068 91,81.5C 93.8969,85.2881 96.3969,88.7881 98.5,92C 100.044,93.1871 101.711,93.5205 103.5,93C 105,91.8855 106.667,91.0521 108.5,90.5C 109.167,89.1667 109.833,87.8333 110.5,86.5C 112.5,87.8333 114.5,89.1667 116.5,90.5C 115.975,91.1924 115.308,91.6924 114.5,92C 115.308,92.3076 115.975,92.8076 116.5,93.5C 115.398,94.1757 114.398,94.8423 113.5,95.5C 101.188,96.7059 89.8542,94.3726 79.5,88.5C 78.8333,87.8333 78.1667,87.1667 77.5,86.5C 78.4057,85.0351 79.739,84.0351 81.5,83.5C 82.3449,79.8478 82.3449,76.5144 81.5,73.5 Z"/></g>
<g><path style="opacity:1" fill="#527538" d="M 77.5,86.5 C 78.1667,87.1667 78.8333,87.8333 79.5,88.5C 76.6205,92.3997 73.7872,96.3997 71,100.5C 66.8227,105.827 61.3227,108.827 54.5,109.5C 52.7377,108.312 51.7377,106.645 51.5,104.5C 54.1553,103.999 56.322,102.666 58,100.5C 60.6703,94.3583 59.6703,93.3583 55,97.5C 53.0876,103.98 52.4209,103.98 53,97.5C 56.0361,93.2994 59.5361,89.6327 63.5,86.5C 61.5302,85.5569 60.0302,86.2236 59,88.5C 58.2588,87.3595 57.4255,87.3595 56.5,88.5C 55.479,87.9984 55.3123,87.3317 56,86.5C 58.1917,85.6005 60.3584,84.6005 62.5,83.5C 63.086,83.7093 63.586,84.0426 64,84.5C 65.9947,79.8398 68.4947,75.5065 71.5,71.5C 72.2298,72.9337 73.2298,74.1004 74.5,75C 73.2893,75.7869 72.2893,76.4536 71.5,77C 71.8873,79.2607 73.2206,80.594 75.5,81C 76.4394,82.5733 76.4394,85.0733 75.5,88.5C 76.8134,89.2179 77.4801,88.5512 77.5,86.5 Z"/></g>
<g><path style="opacity:1" fill="#b3b3b3" d="M 261.5,94.5 C 250.654,94.1722 239.987,94.5056 229.5,95.5C 228.711,95.2172 228.044,94.7172 227.5,94C 239.008,93.1741 250.341,93.3407 261.5,94.5 Z"/></g>
<g><path style="opacity:1" fill="#c4c4c4" d="M 290.5,93.5 C 284.355,94.4902 278.022,94.8235 271.5,94.5C 271.821,100.026 271.488,105.36 270.5,110.5C 270.5,104.833 270.5,99.1667 270.5,93.5C 277.167,93.5 283.833,93.5 290.5,93.5 Z"/></g>
<g><path style="opacity:1" fill="#6e6e6e" d="M 344.5,58.5 C 344.5,72.8333 344.5,87.1667 344.5,101.5C 347.167,101.5 349.833,101.5 352.5,101.5C 352.198,98.9407 352.532,96.6074 353.5,94.5C 353.5,97.1667 353.5,99.8333 353.5,102.5C 350.167,102.5 346.833,102.5 343.5,102.5C 343.171,87.6572 343.504,72.9905 344.5,58.5 Z"/></g>
<g><path style="opacity:1" fill="#636363" d="M 588.5,92.5 C 599.5,92.5 610.5,92.5 621.5,92.5C 621.5,97.5 621.5,102.5 621.5,107.5C 607.167,107.5 592.833,107.5 578.5,107.5C 592.323,106.504 606.323,106.171 620.5,106.5C 620.5,102.167 620.5,97.8333 620.5,93.5C 609.654,93.8278 598.987,93.4944 588.5,92.5 Z"/></g>
<g><path style="opacity:1" fill="#535353" d="M 630.5,106.5 C 645.167,106.5 659.833,106.5 674.5,106.5C 674.806,109.385 674.473,112.052 673.5,114.5C 673.5,112.167 673.5,109.833 673.5,107.5C 658.99,107.829 644.657,107.496 630.5,106.5 Z"/></g>
</svg>
